# AST/ASF file generated using VICON BodyLanguage
# -----------------------------------------------
:version 1.10
:name VICON
:units
  mass 1.0
  length 0.45
  angle deg
:documentation
   .ast/.asf automatically generated from VICON data using
   VICON BodyBuilder and BodyLanguage model FoxedUp or BRILLIANT.MOD
:root
   order TX TY TZ RX RY RZ
   axis XYZ
   position 0 0 0  
   orientation 0 -0 0 
:bonedata
  begin
     id 1 
     name lhipjoint
     direction 0.515797 -0.759363 0.396637 
     length 2.47888 
     axis 0 -0 0  XYZ
  end
  begin
     id 2 
     name lfemur
     direction 0.34202 -0.939693 0  
     length 6.81885  
     axis 0 -0 20  XYZ
    dof rx ry rz
    limits (-160.0 20.0)
           (-70.0 70.0)
           (-60.0 70.0)
  end
  begin
     id 3 
     name ltibia
     direction 0.342037 -0.939687 0   
     length 7.89258   
     axis 0 -0 20   XYZ
    dof rx
    limits (-10.0 170.0)
  end
  begin
     id 4 
     name lfoot
     direction 0.173497 -0.476678 0.861787   
     length 2.51543   
     axis -90 -1.13533e-015 20   XYZ
    dof rx rz
    limits (-45.0 90.0)
           (-70.0 20.0)
  end
  begin
     id 5 
     name ltoes
     direction 1.53564e-011 -4.21897e-011 1   
     length 1.21388   
     axis -90 -1.13533e-015 20   XYZ
    dof rx
    limits (-90.0 20.0)
  end
  begin
     id 6 
     name rhipjoint
     direction -0.489454 -0.772941 0.403729   
     length 2.43534  
     axis 0 -0 0  XYZ 
  end
  begin
     id 7 
     name rfemur
     direction -0.34202 -0.939693 0   
     length 7.10357   
     axis 0 -0 -20   XYZ
    dof rx ry rz
    limits (-160.0 20.0)
           (-70.0 70.0)
           (-70.0 60.0)
  end
  begin
     id 8 
     name rtibia
     direction -0.34202 -0.939693 0   
     length 9.16127   
     axis 0 -0 -20   XYZ
    dof rx
    limits (-10.0 170.0)
 end
 begin
     id 9 
     name rfoot
     direction -0.270974 -0.748671 0.605033   
     length 1.74894  
     axis -90 1.13533e-015 -20   XYZ
    dof rx rz
    limits (-45.0 90.0)
           (-20.0 70.0)
  end
  begin
     id 10 
     name rtoes
     direction -1.53557e-011 -4.21759e-011 1   
     length 0.787585   
     axis -90 1.13533e-015 -20   XYZ
    dof rx
    limits (-90.0 20.0)
  end
  begin
     id 11 
     name lowerback
     direction -0.0140249 0.999561 0.0260968   
     length 2.16963   
     axis 0 -0 0   XYZ
    dof rx ry rz
    limits (-20.0 45.0)
           (-30.0 30.0)
           (-30.0 30.0)
  end
  begin
     id 12 
     name upperback
     direction 0.00860018 0.999959 -0.002711   
     length 2.1726   
     axis 0 -0 0   XYZ
    dof rx ry rz
    limits (-20.0 45.0)
           (-30.0 30.0)
           (-30.0 30.0)
  end
  begin
     id 13 
     name thorax
     direction 0.015211 0.999782 -0.0143191   
     length 2.17061   
     axis 0 -0 0   XYZ
    dof rx ry rz
    limits (-20.0 45.0)
           (-30.0 30.0)
           (-30.0 30.0)
  end
  begin
     id 14 
     name lowerneck
     direction -0.0140143 0.999447 0.030145   
     length 2.26749   
     axis 0 -0 0   XYZ
    dof rx ry rz
    limits (-20.0 45.0)
           (-30.0 30.0)
           (-30.0 30.0)
  end
  begin
     id 15 
     name upperneck
     direction 0.118062 0.961438 -0.248392   
     length 2.22728   
     axis 0 -0 0   XYZ
    dof rx ry rz
    limits (-20.0 45.0)
           (-30.0 30.0)
           (-30.0 30.0)
  end
  begin
     id 16
     name head
     direction 0.0431885 0.9954 -0.085514  
     length 2.28786  
     axis 0 -0 0   XYZ
    dof rx ry rz
    limits (-20.0 45.0)
           (-30.0 30.0)
           (-30.0 30.0)
  end
  begin
     id 17 
     name lclavicle
     direction 0.912126 0.409548 0.0172323  
     length 4.31571  
     axis 0 -0 0   XYZ
    dof ry rz
    limits (-20.0 10.0)
           (0.0 20.0)
  end
  begin
     id 18 
     name lhumerus
     direction 1 -4.48977e-011 1.93091e-027   
     length 5.13658   
     axis 180 -30 -90   XYZ
    dof rx ry rz
    limits (-60.0 90.0)
           (-90.0 90.0)
           (-90.0 90.0)
  end
  begin
     id 19
     name lradius
     direction 1 -4.48916e-011 6.84018e-027   
     length 3.22473   
     axis 180 -30 -90   XYZ
    dof rx
    limits (-10.0 170.0)
  end
  begin
     id 20
     name lwrist
     direction 1 -4.48987e-011 7.01981e-027   
     length 1.61236   
     axis -4.37994e-015 90 90   XYZ
    dof ry
    limits (-180.0 0.0)
 end
  begin
     id 21 
     name lhand
     direction 1 -4.49037e-011 1.40335e-026   
     length 0.936406   
     axis -8.96029e-015 90 90   XYZ
    dof rx rz
    limits (-90.0 90.0)
           (-45.0 45.0)
  end
  begin
     id 22 
     name lfingers
     direction 1 -4.48886e-011 2.8104e-026   
     length 0.754955   
     axis -1.79203e-014 90 90   XYZ
    dof rx
    limits (0.0 90.0)
  end
  begin
     id 23
     name lthumb
     direction 0.707107 -6.34937e-011 0.707107   
     length 1.08397   
     axis -90 45 -4.48555e-014   XYZ
    dof rx rz
    limits (-45.0 45.0)
           (-45.0 45.0)
  end
  begin
     id 24 
     name rclavicle
     direction -0.947962 0.317997 0.0156638   
     length 4.86918  
     axis 0 -0 0   XYZ 
    dof ry rz
    limits (-10.0 20.0)
           (-20.0 0.0)
  end
  begin
     id 25 
     name rhumerus
     direction -1 -4.48951e-011 2.80534e-018  
     length 5.60911   
     axis 180 30 90   XYZ
    dof rx ry rz
    limits (-90.0 60.0)
           (-90.0 90.0)
           (-90.0 90.0)
  end
  begin
     id 26 
     name rradius
     direction -1 -4.4898e-011 2.11315e-027   
     length 3.38704   
     axis 180 30 90   XYZ
    dof rx
    limits (-10.0 170.0)
  end
  begin
     id 27 
     name rwrist
     direction -1 -4.48933e-011 7.02314e-027   
     length 1.69352   
     axis -4.37994e-015 -90 -90   XYZ
    dof ry
    limits (-180.0 0.0)
  end
  begin
     id 28
     name rhand
     direction -1 -4.48937e-011 1.40458e-026   
     length 0.755878   
     axis -8.96029e-015 -90 -90   XYZ
    dof rx rz
    limits (-90.0 90.0)
           (-45.0 45.0)
  end
  begin
     id 29
     name rfingers
     direction -1 -4.4901e-011 2.80737e-026   
     length 0.609409   
     axis -1.79203e-014 -90 -90   XYZ
    dof rx
    limits (0.0 90.0)
  end
  begin
     id 30
     name rthumb
     direction -0.707107 -6.34968e-011 0.707107   
     length 0.874992   
     axis -90 -45 4.48555e-014   XYZ
    dof rx rz
    limits (-45.0 45.0)
           (-45.0 45.0)
  end
:hierarchy
  begin
    root lhipjoint rhipjoint lowerback
    lhipjoint lfemur
    lfemur ltibia
    ltibia lfoot
    lfoot ltoes
    rhipjoint rfemur
    rfemur rtibia
    rtibia rfoot
    rfoot rtoes
    lowerback upperback
    upperback thorax
    thorax lowerneck lclavicle rclavicle
    lowerneck upperneck
    upperneck head
    lclavicle lhumerus
    lhumerus lradius
    lradius lwrist
    lwrist lhand lthumb
    lhand lfingers
    rclavicle rhumerus
    rhumerus rradius
    rradius rwrist
    rwrist rhand rthumb
    rhand rfingers
  end

#!OML:ASF C:\ViconDB\ViconDB\414\Spring2016\041811\Spring2016.ASF
:FULLY-SPECIFIED
:DEGREES
16
root 6.67602 18.3109 -6.30036 -178.413 -9.7448 179.089
lowerback -4.26429 0.833819 -3.38279
upperback 1.39835 1.27774 0.781985
thorax 3.7455 0.545421 2.80085
lowerneck -15.0835 3.29569 -2.98772
upperneck 26.6905 2.49102 6.6399
head 10.9524 1.21311 3.17977
rclavicle -2.0276e-014 5.76476e-015
rhumerus -45.1807 -23.7638 -80.3464
rradius 30.2333
rwrist 39.732
rhand -31.1737 -15.7247
rfingers 7.12502
rthumb -4.45085 -45.658
lclavicle -2.0276e-014 5.76476e-015
lhumerus -37.7415 -4.44023 93.7636
lradius 24.9525
lwrist -31.455
lhand -28.4685 14.8503
lfingers 7.12502
lthumb -1.83842 44.8221
rfemur 1.27822 -13.2538 18.7682
rtibia 12.2566
rfoot -9.58575 -0.516597
rtoes -12.4747
lfemur -7.57871 -11.4931 -18.0186
ltibia 22.1841
lfoot -19.6613 8.34021
ltoes -9.82868
17
root 6.67646 18.31 -6.30288 -178.398 -9.74277 179.026
lowerback -4.27216 0.831109 -3.48413
upperback 1.3992 1.27999 0.790342
thorax 3.74857 0.543979 2.86686
lowerneck -15.1089 3.28226 -3.03464
upperneck 26.7039 2.488 6.63328
head 10.9617 1.20671 3.18616
rclavicle 2.42704e-014 4.17448e-015
rhumerus -45.1521 -23.5944 -80.4037
rradius 30.2648
rwrist 39.653
rhand -31.1443 -15.8143
rfingers 7.12502
rthumb -4.42251 -45.7481
lclavicle 2.42704e-014 4.17448e-015
lhumerus -37.7956 -4.81468 94.0013
lradius 25.0257
lwrist -30.9571
lhand -28.5013 14.9813
lfingers 7.12502
lthumb -1.87006 44.9528
rfemur 1.28131 -13.2584 18.6996
rtibia 12.2576
rfoot -9.60004 -0.524743
rtoes -12.4731
lfemur -7.56856 -11.5226 -18.0894
ltibia 22.1807
lfoot -19.679 8.37482
ltoes -9.81415
18
root 6.67638 18.3091 -6.30587 -178.399 -9.75226 179.04
lowerback -4.27568 0.841395 -3.43416
upperback 1.39975 1.29197 0.762719
thorax 3.75179 0.551377 2.81106
lowerneck -15.0931 3.27205 -3.05312
upperneck 26.6743 2.46436 6.68895
head 10.9475 1.20131 3.20518
rclavicle 3.57812e-015 1.39149e-015
rhumerus -45.148 -23.5108 -80.4882
rradius 30.2902
rwrist 39.5866
rhand -31.1255 -15.769
rfingers 7.12502
rthumb -4.40429 -45.7032
lclavicle 3.57812e-015 1.39149e-015
lhumerus -37.8491 -4.91221 93.9943
lradius 25.1022
lwrist -30.8421
lhand -28.4702 14.9932
lfingers 7.12502
lthumb -1.84007 44.965
rfemur 1.3064 -13.2599 18.7146
rtibia 12.2376
rfoot -9.57813 -0.524416
rtoes -12.4945
lfemur -7.56189 -11.506 -18.0752
ltibia 22.1907
lfoot -19.6794 8.35808
ltoes -9.911
19
root 6.67647 18.3093 -6.30784 -178.4 -9.76445 179.025
lowerback -4.27442 0.826646 -3.47599
upperback 1.40721 1.27441 0.770856
thorax 3.75916 0.541268 2.84185
lowerneck -15.1191 3.29391 -3.05765
upperneck 26.6846 2.50447 6.6702
head 10.9543 1.21776 3.20547
rclavicle 3.80797e-015 -3.37934e-015
rhumerus -45.0967 -23.2975 -80.6132
rradius 30.34
rwrist 39.3691
rhand -31.0969 -15.7895
rfingers 7.12502
rthumb -4.37674 -45.7243
lclavicle 3.80797e-015 -3.37934e-015
lhumerus -37.8534 -4.85203 93.983
lradius 25.1097
lwrist -30.8557
lhand -28.4826 14.9973
lfingers 7.12502
lthumb -1.85205 44.9691
rfemur 1.31769 -13.2688 18.7001
rtibia 12.2407
rfoot -9.56386 -0.523738
rtoes -12.4983
lfemur -7.55199 -11.5381 -18.092
ltibia 22.1892
lfoot -19.6985 8.36953
ltoes -9.82541
20
root 6.67617 18.3098 -6.3111 -178.398 -9.76066 179.064
lowerback -4.30541 0.82996 -3.44073
upperback 1.41545 1.27792 0.773209
thorax 3.78559 0.54314 2.82549
lowerneck -15.1418 3.29437 -3.09774
upperneck 26.7055 2.49519 6.73534
head 10.9651 1.21684 3.23608
rclavicle 5.62188e-015 3.18055e-015
rhumerus -45.0914 -23.2753 -80.6356
rradius 30.3499
rwrist 39.4083
rhand -31.1511 -15.6803
rfingers 7.12502
rthumb -4.42903 -45.614
lclavicle 5.62188e-015 3.18055e-015
lhumerus -37.8627 -4.96161 94.0495
lradius 25.2082
lwrist -30.3681
lhand -28.3856 15.0847
lfingers 7.12502
lthumb -1.75836 45.0572
rfemur 1.33643 -13.2764 18.7424
rtibia 12.2119
rfoot -9.58311 -0.532035
rtoes -12.4918
lfemur -7.55522 -11.5373 -18.0474
ltibia 22.203
lfoot -19.7217 8.36145
ltoes -9.84615
21
root 6.67617 18.3091 -6.31289 -178.401 -9.77346 179.066
lowerback -4.3029 0.841869 -3.43019
upperback 1.41935 1.2932 0.771341
thorax 3.78732 0.55091 2.81872
lowerneck -15.0973 3.28234 -3.06171
upperneck 26.6551 2.49114 6.67253
head 10.9396 1.21231 3.20382
rclavicle 2.74571e-015 -7.95139e-016
rhumerus -45.0694 -23.1826 -80.6527
rradius 30.3525
rwrist 39.3473
rhand -31.1807 -15.6642
rfingers 7.12502
rthumb -4.45759 -45.5973
lclavicle 2.74571e-015 -7.95139e-016
lhumerus -37.8736 -4.95789 94.0497
lradius 25.21
lwrist -30.3552
lhand -28.3797 15.0915
lfingers 7.12502
lthumb -1.7526 45.064
rfemur 1.35889 -13.2699 18.7446
rtibia 12.1866
rfoot -9.57997 -0.523074
rtoes -12.4808
lfemur -7.55393 -11.5482 -18.0478
ltibia 22.2144
lfoot -19.731 8.36892
ltoes -9.89878
